<svg xmlns="http://www.w3.org/2000/svg" width="77" height="37" fill="none"><path fill="#fff" d="m19.467 7.953 6.022 10.429H13.446l6.021-10.43ZM9.734 20.468l6.021 10.429H3.713l6.021-10.43ZM34.994 7.05l-6.11 10.378-5.932-10.48 12.042.103ZM34.997 30.558l-12.042.143 5.897-10.5 6.145 10.357ZM13.24 19.518l12.043.061-6.074 10.399-5.969-10.46ZM3.507 7.004l12.042.06-6.074 10.399-5.968-10.46ZM50.896 29h4.613v-7.074h3.878c5.018 0 7.937-2.993 7.937-7.35 0-4.337-2.866-7.394-7.82-7.394h-8.608V29Zm4.613-10.77v-7.277h3.111c2.663 0 3.952 1.449 3.952 3.622 0 2.163-1.289 3.654-3.93 3.654h-3.133Zm16.353 11.047c1.364 0 2.546-1.14 2.557-2.557-.01-1.395-1.193-2.535-2.557-2.535-1.406 0-2.567 1.14-2.557 2.535-.01 1.417 1.151 2.557 2.557 2.557Z"/></svg>